<svg enable-background="new 0 0 24 24" height="512" viewBox="0 0 24 24" width="512" xmlns="http://www.w3.org/2000/svg"><path d="m18.5 17c-.062 0-.123-.012-.182-.034l-18-7c-.191-.074-.318-.26-.318-.465 0-.206.126-.392.317-.467l23-9c.181-.066.384-.03.523.1.141.132.193.332.137.516l-5 16c-.042.132-.136.241-.261.301-.068.032-.142.049-.216.049zm-16.624-7.501 16.307 6.341 4.529-14.494z"/><path d="m8.5 19c-.059 0-.117-.01-.174-.031-.196-.073-.326-.26-.326-.469v-6c0-.152.069-.296.188-.391l15-12c.218-.171.531-.137.703.078.172.216.138.53-.078.703l-14.813 11.85v4.408l2.906-3.391c.182-.21.497-.233.705-.055.21.18.234.496.055.705l-3.786 4.418c-.097.113-.236.175-.38.175z"/><path d="m7.959 19.837c-.102 0-.203-.03-.292-.094-.225-.161-.275-.474-.114-.698.32-.445.502-.772.509-.785.133-.242.435-.329.678-.198.242.133.331.437.199.679 0 0-.204.375-.573.889-.098.135-.252.207-.407.207z"/><path d="m4.735 22.407c-.224 0-.428-.15-.484-.377-.068-.269.094-.54.361-.607.529-.134 1.073-.439 1.617-.906.211-.18.525-.156.705.053.181.21.156.525-.053.705-.662.569-1.344.945-2.023 1.117-.042.01-.083.015-.123.015zm-2.077-.083c-.048 0-.097-.007-.146-.021-.838-.255-1.472-.768-1.882-1.524-.132-.243-.042-.546.201-.678.239-.131.545-.042.678.201.288.532.699.863 1.294 1.044.264.08.413.359.333.624-.065.216-.263.354-.478.354z"/><path d="m.539 19c-.256 0-.475-.196-.497-.456-.028-.326-.042-.674-.042-1.044 0-.276.224-.5.5-.5s.5.224.5.5c0 .339.012.657.038.956.024.275-.18.518-.454.542-.016.001-.03.002-.045.002z"/></svg>