<svg height="512" viewBox="0 0 512 512" width="512" xmlns="http://www.w3.org/2000/svg"><g><path d="m496 128h-200v-64a8 8 0 0 0 -8-8h-272a8 8 0 0 0 -8 8v240a8 8 0 0 0 8 8h24v56a8 8 0 0 0 13.66 5.66l61.65-61.66h100.69v64a8 8 0 0 0 8 8h172.69l61.65 61.66a8 8 0 0 0 13.66-5.66v-56h24a8 8 0 0 0 8-8v-240a8 8 0 0 0 -8-8zm-384 168a8.008 8.008 0 0 0 -5.66 2.34l-50.34 50.35v-44.69a8 8 0 0 0 -8-8h-24v-224h256v224zm376 72h-24a8 8 0 0 0 -8 8v44.69l-50.34-50.35a8.008 8.008 0 0 0 -5.66-2.34h-168v-56h56a8 8 0 0 0 8-8v-160h192z"/><path d="m144 88a64.072 64.072 0 0 0 -64 64 8 8 0 0 0 16 0 48 48 0 1 1 48 48 8 8 0 0 0 -8 8v32a8 8 0 0 0 16 0v-24.5a64 64 0 0 0 -8-127.5z"/><path d="m144 256a8 8 0 0 0 -8 8v8a8 8 0 0 0 16 0v-8a8 8 0 0 0 -8-8z"/><path d="m352 352a8 8 0 0 0 8-8v-8a8 8 0 0 0 -16 0v8a8 8 0 0 0 8 8z"/><path d="m352 320a8 8 0 0 0 8-8v-144a8 8 0 0 0 -16 0v144a8 8 0 0 0 8 8z"/></g></svg>