<?xml version="1.0" encoding="iso-8859-1"?>
<!-- Generator: Adobe Illustrator 18.1.1, SVG Export Plug-In . SVG Version: 6.00 Build 0)  -->
<svg version="1.1" id="Capa_1" xmlns="http://www.w3.org/2000/svg" xmlns:xlink="http://www.w3.org/1999/xlink" x="0px" y="0px"
	 viewBox="0 0 441.658 441.658" style="enable-background:new 0 0 441.658 441.658;" xml:space="preserve">
<g>
	<g>
		<path style="fill:#010002;" d="M298.367,202.19c3.186-3.178,3.186-8.307,0-11.494l-71.8-71.792
			c-0.748-0.764-1.65-1.341-2.626-1.764c-1-0.415-2.057-0.626-3.121-0.626s-2.113,0.211-3.113,0.626
			c-0.984,0.423-1.878,1-2.634,1.764l-71.808,71.792c-3.17,3.186-3.17,8.332,0,11.494c3.186,3.186,8.316,3.186,11.494,0
			l57.932-57.932v289.272c0,4.495,3.633,8.129,8.129,8.129c4.503,0,8.129-3.633,8.129-8.129V144.258l57.924,57.932
			C290.052,205.368,295.189,205.368,298.367,202.19z"/>
		<path style="fill:#010002;" d="M55.543,346.83h85.342c4.495,0,8.129-3.633,8.129-8.129c0-4.487-3.633-8.129-8.129-8.129H63.671
			V16.257h314.316v314.316h-79.619c-4.487,0-8.129,3.642-8.129,8.129c0,4.495,3.642,8.129,8.129,8.129h87.748
			c4.495,0,8.129-3.633,8.129-8.129V8.129c0-4.495-3.633-8.129-8.129-8.129H55.543c-4.495,0-8.129,3.633-8.129,8.129v330.573
			C47.414,343.188,51.047,346.83,55.543,346.83z"/>
	</g>
</g>
<g>
</g>
<g>
</g>
<g>
</g>
<g>
</g>
<g>
</g>
<g>
</g>
<g>
</g>
<g>
</g>
<g>
</g>
<g>
</g>
<g>
</g>
<g>
</g>
<g>
</g>
<g>
</g>
<g>
</g>
</svg>
